<?xml version="1.0" encoding="UTF-8" standalone="no"?>
<!DOCTYPE svg PUBLIC "-//W3C//DTD SVG 1.1//EN" "http://www.w3.org/Graphics/SVG/1.1/DTD/svg11.dtd">
<svg width="100%" height="100%" viewBox="0 0 598 578" version="1.1" xmlns="http://www.w3.org/2000/svg" xmlns:xlink="http://www.w3.org/1999/xlink" xml:space="preserve" xmlns:serif="http://www.serif.com/" style="fill-rule:evenodd;clip-rule:evenodd;stroke-linejoin:round;stroke-miterlimit:2;fill:#fff;">
    <g transform="matrix(1,0,0,1,-213,-223)">
        <g transform="matrix(52.0107,0,0,52.0107,-14766.8,-27130.7)">
            <g>
                <path d="M289.068,527.896C289.788,527.896 290.508,527.896 291.227,527.896C291.097,530.083 290.967,532.271 290.837,534.458C289.997,534.458 289.158,534.458 288.318,534.458C288.568,532.271 288.818,530.083 289.068,527.896ZM289.292,525.931C289.976,525.931 290.66,525.931 291.344,525.931C291.309,526.525 291.274,527.119 291.238,527.714C290.522,527.714 289.805,527.714 289.089,527.714C289.157,527.119 289.225,526.525 289.292,525.931ZM290.684,537.031C289.797,537.031 288.911,537.031 288.024,537.031C288.114,536.249 288.203,535.466 288.293,534.683C289.136,534.683 289.98,534.683 290.823,534.683C290.777,535.466 290.73,536.249 290.684,537.031Z"/>
                <path d="M291.56,525.931C292.244,525.931 292.928,525.931 293.612,525.931C293.615,528.773 293.618,531.616 293.62,534.458C292.781,534.458 291.941,534.458 291.102,534.458C291.255,531.616 291.408,528.773 291.56,525.931ZM293.623,537.031C292.736,537.031 291.85,537.031 290.964,537.031C291.006,536.249 291.048,535.466 291.09,534.683C291.933,534.683 292.777,534.683 293.621,534.683C293.621,535.466 293.622,536.249 293.623,537.031Z"/>
                <path d="M293.828,525.931C295.268,525.931 296.708,525.931 298.148,525.931C298.306,527.221 298.463,528.511 298.62,529.801C297.865,529.801 297.111,529.801 296.356,529.801C296.31,529.105 296.263,528.409 296.216,527.714L296.002,527.714C296.096,529.231 296.19,530.748 296.283,532.265L296.522,532.265C296.471,531.509 296.42,530.753 296.369,529.997C297.128,529.997 297.886,529.997 298.644,529.997C298.825,531.484 299.006,532.971 299.187,534.458C297.42,534.458 295.653,534.458 293.885,534.458C293.866,531.616 293.847,528.773 293.828,525.931ZM299.501,537.031C297.635,537.031 295.769,537.031 293.903,537.031C293.897,536.249 293.892,535.466 293.887,534.683C295.663,534.683 297.439,534.683 299.215,534.683C299.31,535.466 299.406,536.249 299.501,537.031Z"/>
            </g>
        </g>
    </g>
</svg>
