<?xml version="1.0" encoding="UTF-8" standalone="no"?>
<!DOCTYPE svg PUBLIC "-//W3C//DTD SVG 1.1//EN" "http://www.w3.org/Graphics/SVG/1.1/DTD/svg11.dtd">
<svg width="100%" height="100%" viewBox="0 0 320 176" version="1.1" xmlns="http://www.w3.org/2000/svg" xmlns:xlink="http://www.w3.org/1999/xlink" xml:space="preserve" xmlns:serif="http://www.serif.com/" style="fill-rule:evenodd;clip-rule:evenodd;stroke-linejoin:round;stroke-miterlimit:2;">
    <g transform="matrix(1,0,0,1,0,-72)">
        <g transform="matrix(4.85714,0,0,4.85714,-350.756,93.8427)">
            <g id="CIAO">
                <path d="M81.256,23.021C81.256,23.554 81.356,23.821 81.556,23.821C81.756,23.821 81.856,23.554 81.856,23.021L81.856,14.121L90.856,14.121L90.856,22.321C90.856,25.321 90.039,27.621 88.406,29.221C86.772,30.821 84.439,31.621 81.406,31.621C78.439,31.621 76.172,30.829 74.606,29.246C73.039,27.662 72.256,25.354 72.256,22.321L72.256,4.871C72.256,1.837 73.039,-0.463 74.606,-2.029C76.172,-3.596 78.439,-4.379 81.406,-4.379C84.439,-4.379 86.772,-3.579 88.406,-1.979C90.039,-0.379 90.856,1.904 90.856,4.871L90.856,13.121L81.856,13.121L81.856,4.221C81.856,3.687 81.756,3.421 81.556,3.421C81.356,3.421 81.256,3.687 81.256,4.221L81.256,23.021Z" style="fill:white;fill-rule:nonzero;"/>
                <rect x="91.456" y="-3.879" width="9" height="35" style="fill:white;fill-rule:nonzero;"/>
                <path d="M117.306,-3.879L119.506,31.121L110.506,31.121L110.506,23.921L109.906,23.921L109.906,31.121L100.906,31.121L103.306,-3.879L117.306,-3.879ZM110.506,16.121L110.506,11.821L109.906,11.821L109.906,16.121L110.506,16.121Z" style="fill:white;fill-rule:nonzero;"/>
                <path d="M119.456,4.871C119.456,1.837 120.239,-0.463 121.806,-2.029C123.372,-3.596 125.639,-4.379 128.606,-4.379C131.639,-4.379 133.972,-3.579 135.606,-1.979C137.239,-0.379 138.056,1.904 138.056,4.871L138.056,22.321C138.056,25.321 137.239,27.621 135.606,29.221C133.972,30.821 131.639,31.621 128.606,31.621C125.639,31.621 123.372,30.829 121.806,29.246C120.239,27.662 119.456,25.354 119.456,22.321L119.456,4.871ZM128.456,23.021C128.456,23.554 128.556,23.821 128.756,23.821C128.956,23.821 129.056,23.554 129.056,23.021L129.056,4.221C129.056,3.687 128.956,3.421 128.756,3.421C128.556,3.421 128.456,3.687 128.456,4.221L128.456,23.021Z" style="fill:white;fill-rule:nonzero;"/>
            </g>
        </g>
    </g>
</svg>
