<?xml version="1.0" encoding="UTF-8" standalone="no"?>
<!DOCTYPE svg PUBLIC "-//W3C//DTD SVG 1.1//EN" "http://www.w3.org/Graphics/SVG/1.1/DTD/svg11.dtd">
<svg width="100%" height="100%" viewBox="0 0 320 164" version="1.1" xmlns="http://www.w3.org/2000/svg" xmlns:xlink="http://www.w3.org/1999/xlink" xml:space="preserve" xmlns:serif="http://www.serif.com/" style="fill-rule:evenodd;clip-rule:evenodd;stroke-linejoin:round;stroke-miterlimit:2;">
    <g transform="matrix(1,0,0,1,0,-78)">
        <g transform="matrix(1,0,0,1,0,77.3437)">
            <g id="HEADING">
                <rect x="0.463" y="1.542" width="13.875" height="53.958" style="fill:white;fill-rule:nonzero;"/>
                <path d="M47.448,1.542L47.448,55.5L32.57,55.5L29.025,26.208L28.254,26.208L31.414,55.5L17.539,55.5L17.539,1.542L32.416,1.542L36.27,31.142L37.041,31.142L33.573,1.542L47.448,1.542Z" style="fill:white;fill-rule:nonzero;"/>
                <path d="M78.245,13.567L71.308,13.567L71.308,55.5L57.433,55.5L57.433,13.567L50.495,13.567L50.495,1.542L78.245,1.542L78.245,13.567Z" style="fill:white;fill-rule:nonzero;"/>
                <path d="M95.476,1.542C100.101,1.542 103.672,2.711 106.19,5.049C108.708,7.387 109.968,11.023 109.968,15.956L109.968,16.342C109.968,18.603 109.711,20.568 109.197,22.239C108.683,23.909 108.04,25.309 107.27,26.44C106.499,27.57 105.651,28.405 104.726,28.945C103.801,29.484 102.927,29.754 102.105,29.754L102.105,30.679C102.927,30.679 103.801,30.988 104.726,31.604C105.651,32.221 106.499,33.094 107.27,34.225C108.04,35.356 108.683,36.743 109.197,38.388C109.711,40.032 109.968,41.882 109.968,43.938L109.968,44.554C109.968,46.61 110.006,48.537 110.083,50.335C110.16,52.134 110.379,53.856 110.738,55.5L96.863,55.5C96.504,53.804 96.285,52.057 96.208,50.258C96.131,48.46 96.093,46.507 96.093,44.4L96.093,37.463C96.093,36.897 96.067,36.55 96.015,36.422C95.964,36.293 95.733,36.229 95.322,36.229L95.168,36.229L95.168,55.5L81.293,55.5L81.293,1.542L95.476,1.542ZM95.168,24.204L95.322,24.204C95.733,24.204 95.964,24.14 96.015,24.011C96.067,23.883 96.093,23.536 96.093,22.971L96.093,14.723C96.093,14.209 96.067,13.888 96.015,13.759C95.964,13.631 95.733,13.567 95.322,13.567L95.168,13.567L95.168,24.204Z" style="fill:white;fill-rule:nonzero;"/>
                <path d="M113.169,15.031C113.169,10.355 114.377,6.809 116.792,4.394C119.207,1.978 122.702,0.771 127.275,0.771C131.952,0.771 135.549,2.004 138.067,4.471C140.585,6.938 141.844,10.458 141.844,15.031L141.844,41.933C141.844,46.558 140.585,50.104 138.067,52.571C135.549,55.038 131.952,56.271 127.275,56.271C122.702,56.271 119.207,55.05 116.792,52.609C114.377,50.168 113.169,46.61 113.169,41.933L113.169,15.031ZM127.044,43.013C127.044,43.835 127.198,44.246 127.507,44.246C127.815,44.246 127.969,43.835 127.969,43.013L127.969,14.029C127.969,13.207 127.815,12.796 127.507,12.796C127.198,12.796 127.044,13.207 127.044,14.029L127.044,43.013Z" style="fill:white;fill-rule:nonzero;"/>
                <path d="M159.229,1.542C163.854,1.542 167.426,2.659 169.944,4.895C172.462,7.13 173.721,10.509 173.721,15.031L173.721,42.01C173.721,46.584 172.462,49.976 169.944,52.185C167.426,54.395 163.854,55.5 159.229,55.5L145.046,55.5L145.046,1.542L159.229,1.542ZM158.998,43.475L159.152,43.475C159.512,43.475 159.717,43.411 159.769,43.282C159.82,43.154 159.846,42.807 159.846,42.242L159.846,14.8C159.846,14.235 159.82,13.888 159.769,13.759C159.717,13.631 159.512,13.567 159.152,13.567L158.998,13.567L158.998,43.475Z" style="fill:white;fill-rule:nonzero;"/>
                <path d="M190.798,1.542L190.798,43.013C190.798,43.835 190.952,44.246 191.26,44.246C191.568,44.246 191.723,43.835 191.723,43.013L191.723,1.542L205.598,1.542L205.598,41.933C205.598,46.558 204.338,50.104 201.82,52.571C199.302,55.038 195.705,56.271 191.029,56.271C186.404,56.271 182.896,55.05 180.507,52.609C178.117,50.168 176.923,46.61 176.923,41.933L176.923,1.542L190.798,1.542Z" style="fill:white;fill-rule:nonzero;"/>
                <path d="M222.674,43.013C222.674,43.835 222.828,44.246 223.137,44.246C223.445,44.246 223.599,43.835 223.599,43.013L223.599,29.292L237.474,29.292L237.474,41.933C237.474,46.558 236.215,50.104 233.697,52.571C231.179,55.038 227.582,56.271 222.905,56.271C218.332,56.271 214.837,55.05 212.422,52.609C210.007,50.168 208.799,46.61 208.799,41.933L208.799,15.031C208.799,10.355 210.007,6.809 212.422,4.394C214.837,1.978 218.332,0.771 222.905,0.771C227.582,0.771 231.179,2.004 233.697,4.471C236.215,6.938 237.474,10.458 237.474,15.031L237.474,27.75L223.599,27.75L223.599,14.029C223.599,13.207 223.445,12.796 223.137,12.796C222.828,12.796 222.674,13.207 222.674,14.029L222.674,43.013Z" style="fill:white;fill-rule:nonzero;"/>
                <rect x="240.676" y="1.542" width="13.875" height="53.958" style="fill:white;fill-rule:nonzero;"/>
                <path d="M287.661,1.542L287.661,55.5L272.784,55.5L269.238,26.208L268.467,26.208L271.628,55.5L257.753,55.5L257.753,1.542L272.63,1.542L276.484,31.142L277.255,31.142L273.786,1.542L287.661,1.542Z" style="fill:white;fill-rule:nonzero;"/>
                <path d="M304.738,25.283L319.538,25.283L319.538,55.5L310.133,55.5L310.133,51.183L309.208,51.183C308.797,52.828 307.872,54.087 306.433,54.96C304.994,55.834 303.401,56.271 301.654,56.271C300.369,56.271 299.085,56.001 297.8,55.461C296.515,54.922 295.359,54.074 294.331,52.918C293.303,51.761 292.468,50.284 291.826,48.485C291.184,46.687 290.863,44.503 290.863,41.933L290.863,15.031C290.863,10.355 292.07,6.809 294.485,4.394C296.901,1.978 300.395,0.771 304.969,0.771C309.645,0.771 313.242,2.004 315.76,4.471C318.278,6.938 319.538,10.458 319.538,15.031L319.538,23.742L305.663,23.742L305.663,14.029C305.663,13.207 305.508,12.796 305.2,12.796C304.892,12.796 304.738,13.207 304.738,14.029L304.738,25.283ZM304.738,43.013C304.738,43.835 304.892,44.246 305.2,44.246C305.508,44.246 305.663,43.835 305.663,43.013L305.663,34.225L304.738,34.225L304.738,43.013Z" style="fill:white;fill-rule:nonzero;"/>
                <rect x="0.4" y="63" width="12" height="46.667" style="fill:white;fill-rule:nonzero;"/>
                <path d="M37.067,73.4L31.067,73.4L31.067,109.667L19.067,109.667L19.067,73.4L13.067,73.4L13.067,63L37.067,63L37.067,73.4Z" style="fill:white;fill-rule:nonzero;"/>
                <path d="M56.733,63L59.667,109.667L47.667,109.667L47.667,100.067L46.867,100.067L46.867,109.667L34.867,109.667L38.067,63L56.733,63ZM47.667,89.667L47.667,83.933L46.867,83.933L46.867,89.667L47.667,89.667Z" style="fill:white;fill-rule:nonzero;"/>
                <path d="M72.267,63L72.267,99.267L77.6,99.267L77.6,109.667L60.267,109.667L60.267,63L72.267,63Z" style="fill:white;fill-rule:nonzero;"/>
                <path d="M86.667,63L86.667,80.533L87.467,80.533L87.467,63L99.467,63L92.933,97L92.933,109.667L80.933,109.667L80.933,97L74.667,63L86.667,63Z" style="fill:white;fill-rule:nonzero;"/>
                <path d="M108.8,67L108.133,81.267L100.8,81.267L100.133,67L100.133,61.667L108.8,61.667L108.8,67Z" style="fill:white;fill-rule:nonzero;"/>
                <path d="M122.4,79L122.4,73.8C122.4,73.089 122.267,72.733 122,72.733C121.733,72.733 121.6,73.089 121.6,73.8L121.6,77.533C121.6,78.022 121.633,78.433 121.7,78.767C121.767,79.1 121.967,79.433 122.3,79.767C122.633,80.1 123.156,80.489 123.867,80.933C124.578,81.378 125.578,81.956 126.867,82.667L128.667,83.667C129.822,84.289 130.767,84.978 131.5,85.733C132.233,86.489 132.811,87.378 133.233,88.4C133.656,89.422 133.956,90.633 134.133,92.033C134.311,93.433 134.4,95.111 134.4,97.067L134.4,97.933C134.4,101.933 133.311,105 131.133,107.133C128.956,109.267 125.844,110.333 121.8,110.333C117.8,110.333 114.767,109.278 112.7,107.167C110.633,105.056 109.6,101.978 109.6,97.933L109.6,93.667L121.6,93.667L121.6,98.867C121.6,99.578 121.733,99.933 122,99.933C122.267,99.933 122.4,99.6 122.4,98.933L122.4,95C122.4,94.511 122.367,94.111 122.3,93.8C122.233,93.489 122.056,93.178 121.767,92.867C121.478,92.556 121.011,92.2 120.367,91.8C119.722,91.4 118.822,90.867 117.667,90.2L115.533,89C114.378,88.333 113.411,87.611 112.633,86.833C111.856,86.056 111.244,85.133 110.8,84.067C110.356,83 110.044,81.756 109.867,80.333C109.689,78.911 109.6,77.222 109.6,75.267L109.6,74.667C109.6,70.622 110.644,67.556 112.733,65.467C114.822,63.378 117.844,62.333 121.8,62.333C125.844,62.333 128.956,63.4 131.133,65.533C133.311,67.667 134.4,70.711 134.4,74.667L134.4,79L122.4,79Z" style="fill:white;fill-rule:nonzero;"/>
                <path d="M206.8,73.4L206.8,81.133L211.8,81.133L211.8,91.533L206.8,91.533L206.8,109.667L194.8,109.667L194.8,63L212.133,63L212.133,73.4L206.8,73.4Z" style="fill:white;fill-rule:nonzero;"/>
                <rect x="212.667" y="63" width="12" height="46.667" style="fill:white;fill-rule:nonzero;"/>
                <path d="M251.333,63L251.333,109.667L238.467,109.667L235.4,84.333L234.733,84.333L237.467,109.667L225.467,109.667L225.467,63L238.333,63L241.667,88.6L242.333,88.6L239.333,63L251.333,63Z" style="fill:white;fill-rule:nonzero;"/>
                <path d="M264.133,73.4L264.133,79.867L269.467,79.867L269.467,90.267L264.133,90.267L264.133,99.267L269.467,99.267L269.467,109.667L252.133,109.667L252.133,63L269.467,63L269.467,73.4L264.133,73.4Z" style="fill:white;fill-rule:nonzero;"/>
                <path d="M283.067,79L283.067,73.8C283.067,73.089 282.933,72.733 282.667,72.733C282.4,72.733 282.267,73.089 282.267,73.8L282.267,77.533C282.267,78.022 282.3,78.433 282.367,78.767C282.433,79.1 282.633,79.433 282.967,79.767C283.3,80.1 283.822,80.489 284.533,80.933C285.244,81.378 286.244,81.956 287.533,82.667L289.333,83.667C290.489,84.289 291.433,84.978 292.167,85.733C292.9,86.489 293.478,87.378 293.9,88.4C294.322,89.422 294.622,90.633 294.8,92.033C294.978,93.433 295.067,95.111 295.067,97.067L295.067,97.933C295.067,101.933 293.978,105 291.8,107.133C289.622,109.267 286.511,110.333 282.467,110.333C278.467,110.333 275.433,109.278 273.367,107.167C271.3,105.056 270.267,101.978 270.267,97.933L270.267,93.667L282.267,93.667L282.267,98.867C282.267,99.578 282.4,99.933 282.667,99.933C282.933,99.933 283.067,99.6 283.067,98.933L283.067,95C283.067,94.511 283.033,94.111 282.967,93.8C282.9,93.489 282.722,93.178 282.433,92.867C282.144,92.556 281.678,92.2 281.033,91.8C280.389,91.4 279.489,90.867 278.333,90.2L276.2,89C275.044,88.333 274.078,87.611 273.3,86.833C272.522,86.056 271.911,85.133 271.467,84.067C271.022,83 270.711,81.756 270.533,80.333C270.356,78.911 270.267,77.222 270.267,75.267L270.267,74.667C270.267,70.622 271.311,67.556 273.4,65.467C275.489,63.378 278.511,62.333 282.467,62.333C286.511,62.333 289.622,63.4 291.8,65.533C293.978,67.667 295.067,70.711 295.067,74.667L295.067,79L283.067,79Z" style="fill:white;fill-rule:nonzero;"/>
                <path d="M319.733,73.4L313.733,73.4L313.733,109.667L301.733,109.667L301.733,73.4L295.733,73.4L295.733,63L319.733,63L319.733,73.4Z" style="fill:white;fill-rule:nonzero;"/>
                <path d="M13.175,114.25L13.175,152.783L18.842,152.783L18.842,163.833L0.425,163.833L0.425,114.25L13.175,114.25Z" style="fill:white;fill-rule:nonzero;"/>
                <path d="M20.308,126.646C20.308,122.349 21.417,119.09 23.637,116.871C25.856,114.651 29.067,113.542 33.27,113.542C37.567,113.542 40.873,114.675 43.187,116.942C45.501,119.208 46.658,122.443 46.658,126.646L46.658,151.367C46.658,155.617 45.501,158.875 43.187,161.142C40.873,163.408 37.567,164.542 33.27,164.542C29.067,164.542 25.856,163.42 23.637,161.177C21.417,158.934 20.308,155.664 20.308,151.367L20.308,126.646ZM33.058,152.358C33.058,153.114 33.199,153.492 33.483,153.492C33.766,153.492 33.908,153.114 33.908,152.358L33.908,125.725C33.908,124.969 33.766,124.592 33.483,124.592C33.199,124.592 33.058,124.969 33.058,125.725L33.058,152.358Z" style="fill:white;fill-rule:nonzero;"/>
                <path d="M75.819,114.25L75.819,163.833L62.148,163.833L58.89,136.917L58.182,136.917L61.086,163.833L48.336,163.833L48.336,114.25L62.007,114.25L65.548,141.45L66.257,141.45L63.069,114.25L75.819,114.25Z" style="fill:white;fill-rule:nonzero;"/>
                <path d="M90.248,136.067L103.848,136.067L103.848,163.833L95.206,163.833L95.206,159.867L94.356,159.867C93.978,161.378 93.128,162.535 91.806,163.338C90.484,164.14 89.02,164.542 87.414,164.542C86.234,164.542 85.053,164.294 83.873,163.798C82.692,163.302 81.63,162.523 80.685,161.46C79.741,160.398 78.973,159.04 78.383,157.388C77.793,155.735 77.498,153.728 77.498,151.367L77.498,126.646C77.498,122.349 78.607,119.09 80.827,116.871C83.046,114.651 86.257,113.542 90.46,113.542C94.757,113.542 98.063,114.675 100.377,116.942C102.691,119.208 103.848,122.443 103.848,126.646L103.848,134.65L91.098,134.65L91.098,125.725C91.098,124.969 90.956,124.592 90.673,124.592C90.389,124.592 90.248,124.969 90.248,125.725L90.248,136.067ZM90.248,152.358C90.248,153.114 90.389,153.492 90.673,153.492C90.956,153.492 91.098,153.114 91.098,152.358L91.098,144.283L90.248,144.283L90.248,152.358Z" style="fill:white;fill-rule:nonzero;"/>
                <path d="M118.559,114.25C122.809,114.25 126.091,115.301 128.405,117.402C130.719,119.503 131.876,122.514 131.876,126.433L131.876,126.788C131.876,128.629 131.652,130.258 131.203,131.675C130.755,133.092 130.176,134.272 129.468,135.217C128.759,136.161 127.98,136.869 127.13,137.342C126.28,137.814 125.454,138.05 124.651,138.05L124.651,138.9C125.407,138.9 126.245,139.172 127.166,139.715C128.087,140.258 128.948,141.049 129.751,142.088C130.554,143.126 131.227,144.366 131.77,145.806C132.313,147.247 132.584,148.888 132.584,150.729L132.584,151.65C132.584,155.475 131.345,158.462 128.866,160.61C126.387,162.759 122.951,163.833 118.559,163.833L105.526,163.833L105.526,114.25L118.559,114.25ZM118.276,132.95L118.418,132.95C118.796,132.95 119.008,132.891 119.055,132.773C119.103,132.655 119.126,132.336 119.126,131.817L119.126,126.433C119.126,125.914 119.103,125.595 119.055,125.477C119.008,125.359 118.796,125.3 118.418,125.3L118.276,125.3L118.276,132.95ZM118.276,152.783L118.418,152.783C118.796,152.783 119.008,152.724 119.055,152.606C119.103,152.488 119.126,152.169 119.126,151.65L119.126,145.133C119.126,144.614 119.103,144.295 119.055,144.177C119.008,144.059 118.796,144 118.418,144L118.276,144L118.276,152.783Z" style="fill:white;fill-rule:nonzero;"/>
                <path d="M134.121,126.646C134.121,122.349 135.231,119.09 137.45,116.871C139.67,114.651 142.881,113.542 147.084,113.542C151.381,113.542 154.686,114.675 157,116.942C159.314,119.208 160.471,122.443 160.471,126.646L160.471,151.367C160.471,155.617 159.314,158.875 157,161.142C154.686,163.408 151.381,164.542 147.084,164.542C142.881,164.542 139.67,163.42 137.45,161.177C135.231,158.934 134.121,155.664 134.121,151.367L134.121,126.646ZM146.871,152.358C146.871,153.114 147.013,153.492 147.296,153.492C147.58,153.492 147.721,153.114 147.721,152.358L147.721,125.725C147.721,124.969 147.58,124.592 147.296,124.592C147.013,124.592 146.871,124.969 146.871,125.725L146.871,152.358Z" style="fill:white;fill-rule:nonzero;"/>
                <path d="M184.462,114.25L187.579,163.833L174.829,163.833L174.829,153.633L173.979,153.633L173.979,163.833L161.229,163.833L164.629,114.25L184.462,114.25ZM174.829,142.583L174.829,136.492L173.979,136.492L173.979,142.583L174.829,142.583Z" style="fill:white;fill-rule:nonzero;"/>
                <path d="M202.078,114.25C206.328,114.25 209.61,115.324 211.924,117.473C214.238,119.622 215.395,122.963 215.395,127.496L215.395,127.85C215.395,129.928 215.159,131.734 214.686,133.269C214.214,134.803 213.624,136.09 212.916,137.129C212.207,138.168 211.428,138.935 210.578,139.431C209.728,139.927 208.925,140.175 208.17,140.175L208.17,141.025C208.925,141.025 209.728,141.308 210.578,141.875C211.428,142.442 212.207,143.244 212.916,144.283C213.624,145.322 214.214,146.597 214.686,148.108C215.159,149.619 215.395,151.319 215.395,153.208L215.395,153.775C215.395,155.664 215.43,157.435 215.501,159.088C215.572,160.74 215.772,162.322 216.103,163.833L203.353,163.833C203.022,162.275 202.822,160.669 202.751,159.017C202.68,157.364 202.645,155.569 202.645,153.633L202.645,147.258C202.645,146.739 202.621,146.42 202.574,146.302C202.527,146.184 202.314,146.125 201.936,146.125L201.795,146.125L201.795,163.833L189.045,163.833L189.045,114.25L202.078,114.25ZM201.795,135.075L201.936,135.075C202.314,135.075 202.527,135.016 202.574,134.898C202.621,134.78 202.645,134.461 202.645,133.942L202.645,126.363C202.645,125.89 202.621,125.595 202.574,125.477C202.527,125.359 202.314,125.3 201.936,125.3L201.795,125.3L201.795,135.075Z" style="fill:white;fill-rule:nonzero;"/>
                <path d="M230.106,114.25C234.356,114.25 237.638,115.277 239.952,117.331C242.266,119.385 243.423,122.49 243.423,126.646L243.423,151.438C243.423,155.64 242.266,158.757 239.952,160.788C237.638,162.818 234.356,163.833 230.106,163.833L217.073,163.833L217.073,114.25L230.106,114.25ZM229.894,152.783L230.036,152.783C230.366,152.783 230.555,152.724 230.602,152.606C230.649,152.488 230.673,152.169 230.673,151.65L230.673,126.433C230.673,125.914 230.649,125.595 230.602,125.477C230.555,125.359 230.366,125.3 230.036,125.3L229.894,125.3L229.894,152.783Z" style="fill:white;fill-rule:nonzero;"/>
                <path d="M257.852,125.3L257.852,132.171L263.518,132.171L263.518,143.221L257.852,143.221L257.852,152.783L263.518,152.783L263.518,163.833L245.102,163.833L245.102,114.25L263.518,114.25L263.518,125.3L257.852,125.3Z" style="fill:white;fill-rule:nonzero;"/>
                <path d="M278.23,114.25C282.48,114.25 285.762,115.324 288.076,117.473C290.39,119.622 291.547,122.963 291.547,127.496L291.547,127.85C291.547,129.928 291.31,131.734 290.838,133.269C290.366,134.803 289.776,136.09 289.067,137.129C288.359,138.168 287.58,138.935 286.73,139.431C285.88,139.927 285.077,140.175 284.322,140.175L284.322,141.025C285.077,141.025 285.88,141.308 286.73,141.875C287.58,142.442 288.359,143.244 289.067,144.283C289.776,145.322 290.366,146.597 290.838,148.108C291.31,149.619 291.547,151.319 291.547,153.208L291.547,153.775C291.547,155.664 291.582,157.435 291.653,159.088C291.724,160.74 291.924,162.322 292.255,163.833L279.505,163.833C279.174,162.275 278.974,160.669 278.903,159.017C278.832,157.364 278.797,155.569 278.797,153.633L278.797,147.258C278.797,146.739 278.773,146.42 278.726,146.302C278.679,146.184 278.466,146.125 278.088,146.125L277.947,146.125L277.947,163.833L265.197,163.833L265.197,114.25L278.23,114.25ZM277.947,135.075L278.088,135.075C278.466,135.075 278.679,135.016 278.726,134.898C278.773,134.78 278.797,134.461 278.797,133.942L278.797,126.363C278.797,125.89 278.773,125.595 278.726,125.477C278.679,125.359 278.466,125.3 278.088,125.3L277.947,125.3L277.947,135.075Z" style="fill:white;fill-rule:nonzero;"/>
                <path d="M306.825,131.25L306.825,125.725C306.825,124.969 306.683,124.592 306.4,124.592C306.117,124.592 305.975,124.969 305.975,125.725L305.975,129.692C305.975,130.211 306.01,130.648 306.081,131.002C306.152,131.356 306.365,131.71 306.719,132.065C307.073,132.419 307.628,132.832 308.383,133.304C309.139,133.776 310.201,134.39 311.571,135.146L313.483,136.208C314.711,136.869 315.715,137.601 316.494,138.404C317.273,139.207 317.887,140.151 318.335,141.238C318.784,142.324 319.103,143.61 319.292,145.098C319.481,146.585 319.575,148.368 319.575,150.446L319.575,151.367C319.575,155.617 318.418,158.875 316.104,161.142C313.79,163.408 310.485,164.542 306.188,164.542C301.938,164.542 298.715,163.42 296.519,161.177C294.323,158.934 293.225,155.664 293.225,151.367L293.225,146.833L305.975,146.833L305.975,152.358C305.975,153.114 306.117,153.492 306.4,153.492C306.683,153.492 306.825,153.138 306.825,152.429L306.825,148.25C306.825,147.731 306.79,147.306 306.719,146.975C306.648,146.644 306.459,146.314 306.152,145.983C305.845,145.653 305.349,145.275 304.665,144.85C303.98,144.425 303.024,143.858 301.796,143.15L299.529,141.875C298.301,141.167 297.274,140.399 296.448,139.573C295.622,138.747 294.972,137.767 294.5,136.633C294.028,135.5 293.697,134.178 293.508,132.667C293.319,131.156 293.225,129.361 293.225,127.283L293.225,126.646C293.225,122.349 294.335,119.09 296.554,116.871C298.774,114.651 301.985,113.542 306.188,113.542C310.485,113.542 313.79,114.675 316.104,116.942C318.418,119.208 319.575,122.443 319.575,126.646L319.575,131.25L306.825,131.25Z" style="fill:white;fill-rule:nonzero;"/>
            </g>
        </g>
    </g>
</svg>
